<svg height="511.999pt" viewBox="0 1 511 511.99901" width="511pt" xmlns="http://www.w3.org/2000/svg"><path d="m511.832031 256c0-141.386719-114.464843-256-255.664062-256-141.203125 0-255.667969 114.613281-255.667969 256 0 141.382812 114.464844 256 255.667969 256 141.199219 0 255.664062-114.617188 255.664062-256zm0 0" fill="#fe6192"/><path d="m511.832031 256c0-3.527344-.089843-7.03125-.230469-10.523438l-131.625-131.625-247.617187 285.617188 112.257813 112.257812c3.832031.171876 7.679687.273438 11.550781.273438 141.199219 0 255.664062-114.617188 255.664062-256zm0 0" fill="#bf496e"/><path d="m256.167969 113.851562-31.984375 57.628907 127.292968 227.988281h28.5v-285.617188zm0 0" fill="#c0c0c0"/><path d="m256.167969 152.480469v-38.628907h-123.808594v285.617188h37.996094zm0 0" fill="#e4e4e4"/><path d="m256.167969 142.984375-63.648438 256.484375h158.957031v-256.484375zm0 0" fill="#434343"/><path d="m160.855469 142.984375 28.5 171.621094h66.8125v-171.621094zm0 0" fill="#636363"/><path d="m303.980469 181.613281-47.8125-12.902343-38 128.238281 38 128.242187 47.8125 12.90625zm0 0" fill="#0f9af0"/><path d="m160.855469 142.984375v256.484375l95.3125 25.722656v-256.480468zm0 0" fill="#13bdf7"/><path d="m289.574219 303.425781c0 5.246094-4.253907 9.5-9.5 9.5-5.246094 0-9.5-4.253906-9.5-9.5 0-5.246093 4.253906-9.5 9.5-9.5 5.246093 0 9.5 4.253907 9.5 9.5zm0 0" fill="#fff"/></svg>