<svg id="Layer_1" enable-background="new 0 0 510 510" height="512" viewBox="0 0 510 510" width="512" xmlns="http://www.w3.org/2000/svg"><g><g><g><path d="m255 0c-98.131 0-158.58 55.352-158.747 55.445 0 0-2.513 3.137-2.983 5.222-3.818 16.948-7.385 39.663-7.385 56.238 0 140.833 118.763 254.972 259.596 254.972 54.231 0 114.568-25.992 154.949-57.243.903-.699 3.769-5.396 3.769-5.396.178-1.087 5.8-23.477 5.8-54.239.001-140.832-114.166-254.999-254.999-254.999z" fill="#c8effe"/></g><path d="m345.459 364.679c-140.833 0-255-114.167-255-255 0-18.615 2.007-36.753 5.795-54.234-58.645 46.72-96.254 118.747-96.254 199.555 0 13.46 1.043 26.677 3.052 39.574l29.468 30.568-1.743 51.406c43.182 79.49 127.401 133.452 224.223 133.452 121.17 0 224.116-84.98 249.199-200.761-43.559 34.695-98.724 55.44-158.74 55.44z" fill="#b3dafe"/></g><g><path d="m130.942 234.929 57.393-7.062 58.792 61.118 75.243-74.986 41.064-41.065 72.956-16.893-15.392 72.457-42.112 42.113-133.002 132.549-115.275-119.996z" fill="#fd3581"/></g><path d="m31.596 378.013 156.739-150.146-55.336-57.766-129.938 124.472c4.65 29.844 14.48 57.969 28.535 83.44z" fill="#e41e7f"/><g><path d="m363.434 172.934h57.564v55.564l58.464-58.463-56.565-56.564z" fill="#e41e7f"/></g><g><path d="m358.003 82.933v64h87.997l32-64z" fill="#fe646f"/><g><g><path d="m510 234.929h-64v-119.996c0-17.673 14.327-32 32-32 17.673 0 32 14.327 32 32z" fill="#fd3581"/></g></g></g></g></svg>